<svg xmlns="http://www.w3.org/2000/svg" viewBox="0 0 128 128">
  <defs>
    <linearGradient id="t" x1="48" y1="24" x2="90" y2="103" gradientUnits="userSpaceOnUse">
      <stop stop-color="#0b73ff"/>
      <stop offset="1" stop-color="#12b8d5"/>
    </linearGradient>
    <linearGradient id="a" x1="88" y1="48" x2="118" y2="78" gradientUnits="userSpaceOnUse">
      <stop stop-color="#0789ff"/>
      <stop offset="1" stop-color="#17c6b5"/>
    </linearGradient>
  </defs>
  <g transform="matrix(1.03 0 0 1.2 -2 -11)">
    <path fill="#061a48" d="M18 31c1-8 7-13 15-13h56L76 35H33c-4 0-7 3-8 7l-1 4h47L59 63H21l-3 18h48l-10 18H23C10 99 1 88 4 75l6-31c1-6 4-10 8-13Z"/>
    <path fill="url(#t)" d="M70 18h42L99 36H84L72 99H49l12-63H45l14-18h11Z"/>
    <path fill="url(#a)" d="M94 48h14l18 18-27 27H80l27-27-20-18h7Z"/>
  </g>
</svg>
